<svg xmlns="http://www.w3.org/2000/svg" xmlns:xlink="http://www.w3.org/1999/xlink" version="1.1" x="0px" y="0px" viewBox="0 0 100 125" style="enable-background:new 0 0 100 100;" xml:space="preserve" fill="#fff" width="30px" height="30px"><g><path d="M18.4,26.6c-2.1-1.2-4.9-0.5-6.1,1.6c-1.3,2.2-0.5,4.9,1.6,6.2c0.7,0.4,1.5,0.6,2.3,0.6c1.6,0,3.1-0.8,3.9-2.3   C21.3,30.6,20.5,27.8,18.4,26.6z"/><path d="M28.2,12.2c-2.2,1.3-2.9,4-1.6,6.1c0.8,1.4,2.3,2.3,3.9,2.3c0.8,0,1.5-0.2,2.3-0.6c2.1-1.2,2.9-4,1.6-6.1   C33.1,11.7,30.3,11,28.2,12.2z"/><path d="M50,6.4c-2.5,0-4.5,2-4.5,4.5s2,4.5,4.5,4.5c19.1,0,34.6,15.5,34.6,34.6c0,19.1-15.5,34.6-34.6,34.6   c-19.1,0-34.6-15.5-34.6-34.6c0-2.5-2-4.5-4.5-4.5s-4.5,2-4.5,4.5C6.4,74,26,93.6,50,93.6S93.6,74,93.6,50S74,6.4,50,6.4z"/></g></svg>