<svg xmlns="http://www.w3.org/2000/svg" xmlns:xlink="http://www.w3.org/1999/xlink" viewBox="0 0 24 31.25" version="1.1" x="0px" y="0px" width="500px"><title>46 - Mars (Outline)</title><desc>Created with Sketch.</desc><g stroke="none" stroke-width="1" fill="none" fill-rule="evenodd"><g fill="#ffffff"><path d="M22,12.052 C22,17.5747153 17.5227153,22.052 12,22.052 C6.47728475,22.052 2,17.5747153 2,12.052 C2,6.52928475 6.47728475,2.052 12,2.052 C17.5227153,2.052 22,6.52928475 22,12.052 Z M24,12.052 C24,5.42471525 18.6272847,0.052 12,0.052 C5.37271525,0.052 0,5.42471525 0,12.052 C0,18.6792847 5.37271525,24.052 12,24.052 C18.6272847,24.052 24,18.6792847 24,12.052 Z"/><path d="M4,6.052 L7,6.052 C7.55228475,6.052 8,5.60428475 8,5.052 C8,4.49971525 7.55228475,4.052 7,4.052 L4,4.052 C3.44771525,4.052 3,4.49971525 3,5.052 C3,5.60428475 3.44771525,6.052 4,6.052 Z"/><path d="M14,6.052 L20,6.052 C20.5522847,6.052 21,5.60428475 21,5.052 C21,4.49971525 20.5522847,4.052 20,4.052 L14,4.052 C13.4477153,4.052 13,4.49971525 13,5.052 C13,5.60428475 13.4477153,6.052 14,6.052 Z"/><path d="M2,17.052 L6,17.052 C6.55228475,17.052 7,16.6042847 7,16.052 C7,15.4997153 6.55228475,15.052 6,15.052 L2,15.052 C1.44771525,15.052 1,15.4997153 1,16.052 C1,16.6042847 1.44771525,17.052 2,17.052 Z"/><path d="M11,17.052 L22,17.052 C22.5522847,17.052 23,16.6042847 23,16.052 C23,15.4997153 22.5522847,15.052 22,15.052 L11,15.052 C10.4477153,15.052 10,15.4997153 10,16.052 C10,16.6042847 10.4477153,17.052 11,17.052 Z"/><path d="M2,13.052 L10,13.052 C10.5522847,13.052 11,12.6042847 11,12.052 C11,11.4997153 10.5522847,11.052 10,11.052 L2,11.052 C1.44771525,11.052 1,11.4997153 1,12.052 C1,12.6042847 1.44771525,13.052 2,13.052 Z"/><path d="M18,13.052 L22,13.052 C22.5522847,13.052 23,12.6042847 23,12.052 C23,11.4997153 22.5522847,11.052 22,11.052 L18,11.052 C17.4477153,11.052 17,11.4997153 17,12.052 C17,12.6042847 17.4477153,13.052 18,13.052 Z"/><path d="M9,9.052 L12,9.052 C12.5522847,9.052 13,8.60428475 13,8.052 C13,7.49971525 12.5522847,7.052 12,7.052 L9,7.052 C8.44771525,7.052 8,7.49971525 8,8.052 C8,8.60428475 8.44771525,9.052 9,9.052 Z"/><path d="M11,21.052 L14,21.052 C14.5522847,21.052 15,20.6042847 15,20.052 C15,19.4997153 14.5522847,19.052 14,19.052 L11,19.052 C10.4477153,19.052 10,19.4997153 10,20.052 C10,20.6042847 10.4477153,21.052 11,21.052 Z"/></g></g><text x="0" y="40" fill="#000000" font-size="5px" font-weight="bold" font-family="'Helvetica Neue', Helvetica, Arial-Unicode, Arial, Sans-serif">Created by Ben Davis</text><text x="0" y="45" fill="#000000" font-size="5px" font-weight="bold" font-family="'Helvetica Neue', Helvetica, Arial-Unicode, Arial, Sans-serif">from the Noun Project</text></svg>