<?xml version="1.0" standalone="no"?>
<!DOCTYPE svg PUBLIC "-//W3C//DTD SVG 20010904//EN"
 "http://www.w3.org/TR/2001/REC-SVG-20010904/DTD/svg10.dtd">
<svg version="1.0" xmlns="http://www.w3.org/2000/svg"
 width="125.000000pt" height="125.000000pt" viewBox="0 0 125.000000 125.000000"
 preserveAspectRatio="xMidYMid meet">
<metadata>
Created by potrace 1.11, written by Peter Selinger 2001-2013
</metadata>
<g transform="translate(0.000000,125.000000) scale(0.100000,-0.100000)"
fill="#000000" stroke="none">
<path d="M505 1235 c-226 -48 -411 -214 -478 -430 -31 -102 -31 -268 2 -374
44 -143 178 -299 311 -365 103 -50 169 -66 280 -66 183 0 319 56 445 184 129
130 179 252 180 436 0 134 -21 215 -82 319 -133 224 -409 348 -658 296z m235
-106 c30 -6 87 -28 125 -48 l70 -36 -118 -5 c-124 -5 -137 -10 -137 -56 0 -43
22 -48 196 -49 l165 0 20 -30 c27 -40 48 -90 65 -150 23 -85 28 -81 -98 -82
-102 0 -113 -2 -129 -22 -18 -21 -16 -43 4 -68 7 -9 44 -13 125 -13 l115 0 -7
-42 c-4 -24 -11 -47 -17 -53 -6 -6 -118 -10 -290 -10 -266 0 -282 -1 -295 -20
-18 -25 -18 -44 3 -67 15 -17 37 -18 275 -18 142 0 258 -3 258 -7 0 -9 -50
-74 -77 -100 -57 -55 -131 -101 -198 -123 -58 -20 -62 -21 -145 -27 -159 -11
-321 61 -429 192 -22 27 -41 53 -41 57 0 5 33 8 73 8 44 0 79 5 89 12 27 23
29 48 5 71 -20 21 -31 23 -120 22 l-97 -1 -10 35 c-21 76 -34 71 201 71 126 0
218 4 230 10 23 13 26 62 4 80 -12 10 -71 13 -230 13 -240 1 -223 -6 -204 76
10 46 49 133 74 165 12 16 29 20 105 21 94 2 108 7 114 42 7 32 -16 55 -59 62
l-38 6 51 28 c115 63 247 83 372 56z"/>
<path d="M490 882 c-54 -4 -70 -16 -70 -51 0 -45 16 -51 125 -51 90 0 104 2
121 21 17 19 17 23 3 47 -13 23 -23 28 -74 32 -33 3 -80 4 -105 2z"/>
<path d="M539 239 c-24 -24 -24 -44 1 -69 17 -17 33 -20 113 -20 101 0 127 12
127 57 0 37 -27 47 -127 49 -81 2 -98 -1 -114 -17z"/>
</g>
</svg>
